<?xml version="1.0" encoding="utf-8"?>
<!-- Generator: Adobe Illustrator 22.0.1, SVG Export Plug-In . SVG Version: 6.00 Build 0)  -->
<svg version="1.1" id="Layer_1" xmlns="http://www.w3.org/2000/svg" xmlns:xlink="http://www.w3.org/1999/xlink" x="0px" y="0px"
	 viewBox="0 0 45 45" style="enable-background:new 0 0 45 45;" xml:space="preserve">
<style type="text/css">
	.st0{fill:none;stroke:#56575B;stroke-width:1.0273;stroke-miterlimit:10;}
	.st1{fill:none;stroke:#F9A027;stroke-width:1.0273;stroke-miterlimit:10;}
	.st2{fill:none;stroke:#56575B;stroke-width:1.1137;stroke-miterlimit:10;}
	.st3{fill:none;stroke:#56575B;stroke-width:1.2215;stroke-miterlimit:10;}
	.st4{fill:none;stroke:#F9A027;stroke-width:1.2215;stroke-miterlimit:10;}
	.st5{fill:none;stroke:#54565A;stroke-width:1.2292;stroke-miterlimit:10;}
	.st6{fill:none;stroke:#FAA51D;stroke-width:1.2292;stroke-miterlimit:10;}
	.st7{fill:none;stroke:#F8A028;stroke-width:1.0242;stroke-miterlimit:10;}
	.st8{fill:none;stroke:#54565A;stroke-width:1.0242;stroke-miterlimit:10;}
	.st9{fill:none;stroke:#54565A;stroke-width:1.2418;stroke-miterlimit:10;}
	.st10{fill:none;stroke:#F8A028;stroke-width:1.2418;stroke-miterlimit:10;}
	.st11{fill:none;stroke:#54565A;stroke-width:1.0234;stroke-miterlimit:10;}
	.st12{fill:none;stroke:#F9A027;stroke-width:1.0234;stroke-miterlimit:10;}
	.st13{fill:none;stroke:#56575B;stroke-width:1.0376;stroke-miterlimit:10;}
	.st14{fill:none;stroke:#56575B;stroke-width:0.5764;stroke-miterlimit:10;}
	.st15{fill:none;stroke:#F9A027;stroke-width:1.0376;stroke-miterlimit:10;}
	.st16{fill:none;stroke:#56575B;stroke-width:1.2204;stroke-miterlimit:10;}
	.st17{fill:none;stroke:#F9A027;stroke-width:1.2204;stroke-miterlimit:10;}
	.st18{fill:none;stroke:#56575B;stroke-width:1.0364;stroke-miterlimit:10;}
	.st19{fill:#F8A028;}
	.st20{fill:none;stroke:#F8A028;stroke-width:1.0364;stroke-miterlimit:10;}
	.st21{fill:none;stroke:#56575B;stroke-width:1.0364;stroke-linejoin:round;stroke-miterlimit:10;}
	.st22{fill:none;stroke:#54565A;stroke-width:1.0237;stroke-miterlimit:10;}
	.st23{fill:none;stroke:#F9A027;stroke-width:1.0237;stroke-miterlimit:10;}
	.st24{fill:none;stroke:#57585C;stroke-width:1.0247;stroke-miterlimit:10;}
	.st25{fill:none;stroke:#54565A;stroke-width:1.0247;stroke-miterlimit:10;}
	.st26{fill:none;stroke:#F8A028;stroke-width:1.0247;stroke-miterlimit:10;}
	.st27{fill:none;stroke:#56575B;stroke-width:1.1166;stroke-miterlimit:10;}
	.st28{fill:none;stroke:#56575B;stroke-width:1.2247;stroke-miterlimit:10;}
	.st29{fill:none;stroke:#F9A027;stroke-width:1.2247;stroke-miterlimit:10;}
	.st30{fill:none;stroke:#54565A;stroke-width:1.2328;stroke-miterlimit:10;}
	.st31{fill:none;stroke:#F8A028;stroke-width:1.2328;stroke-miterlimit:10;}
	.st32{fill:#FFFFFF;stroke:#54565A;stroke-width:1.0215;stroke-miterlimit:10;}
	.st33{fill:none;stroke:#54565A;stroke-width:1.0215;stroke-miterlimit:10;}
	.st34{fill:none;stroke:#57585C;stroke-width:1.0261;stroke-miterlimit:10;}
	.st35{fill:none;stroke:#56575B;stroke-width:1.0261;stroke-miterlimit:10;}
	.st36{fill:none;stroke:#F9A027;stroke-width:0.57;stroke-miterlimit:10;}
	.st37{fill-rule:evenodd;clip-rule:evenodd;fill:none;stroke:#57575B;stroke-width:1.1008;stroke-miterlimit:10;}
	.st38{fill:none;stroke:#57575B;stroke-width:1.1008;stroke-miterlimit:10;}
	.st39{fill:none;stroke:#56575B;stroke-width:1.0519;stroke-miterlimit:10;}
	.st40{fill-rule:evenodd;clip-rule:evenodd;fill:none;stroke:#F9A027;stroke-width:1.0519;stroke-miterlimit:10;}
	.st41{fill:none;stroke:#56565A;stroke-width:0.7123;stroke-miterlimit:10;}
	.st42{fill:none;stroke:#56565A;stroke-width:0.5088;stroke-miterlimit:10;}
	.st43{fill:#FAA21B;}
</style>
<g>
	<path class="st34" d="M10.1,44.2l-9.5-9.2l6.8-6.7c2.8-2.8,7-3.7,10.7-2.4l1.5,0.5h9.2c1.6,0,2.9,1.3,2.9,2.9c0,0,0,0.1,0,0.1
		c-0.1,1.6-1.4,2.8-3,2.8h-5.5c-0.6,0-1.1,0.5-1.1,1.1s0.5,1.1,1.1,1.1H30l9.6-10.1c1.1-1.2,2.6-1.8,3.8-0.8c1.3,1,1.2,2.6,0.1,3.9
		c0,0,0,0.1-0.1,0.1L33.4,39.1c-1.4,1.6-3.3,2.5-5.4,2.5H12.7L10.1,44.2z"/>
	<g>
		<g>
			<path class="st35" d="M23.9,20.2H10.7c-0.1-1.5-1.3-2.7-2.8-2.8v-6.6c1.5-0.1,2.7-1.3,2.8-2.8h17.4c0.1,1.5,1.3,2.7,2.8,2.8v6.6
				c-1.5,0.1-2.7,1.3-2.8,2.8h-4.9"/>
			<rect x="6.4" y="6.4" class="st35" width="26.1" height="15.3"/>
			<circle class="st35" cx="19.4" cy="14.1" r="3.5"/>
			<polyline class="st35" points="12.5,6.3 12.5,0.8 38.6,0.8 38.6,16.1 32.5,16.1 			"/>
			<path class="st35" d="M22.8,6.3C23.5,5.5,24.5,5,25.6,5c1.1,0,2.1,0.5,2.7,1.3"/>
			<path class="st35" d="M14,6.4V5.2c1.5-0.1,2.7-1.3,2.8-2.8h17.4c0.1,1.5,1.3,2.7,2.8,2.8v6.6c-1.5,0.1-2.7,1.3-2.8,2.8h-1.8"/>
		</g>
		<g>
			<line class="st36" x1="18.2" y1="12.5" x2="20.8" y2="12.5"/>
			<line class="st36" x1="18.5" y1="13.2" x2="20.5" y2="13.2"/>
			<path class="st36" d="M19.1,12.5c0,0,0.7,0.1,0.7,0.7c0,0,0,0.7-1.3,0.6l0,0l1.5,1.9"/>
		</g>
	</g>
</g>
</svg>
